<?xml version="1.0" encoding="UTF-8"?>
<svg id="Layer_2" data-name="Layer 2" xmlns="http://www.w3.org/2000/svg" viewBox="0 0 229 254">
  <defs>
    <style>
      .cls-1 {
        fill: #ccc;
      }

      .cls-2 {
        fill: #f2f2f2;
      }
    </style>
  </defs>
  <g id="Layer_1-2" data-name="Layer 1">
    <g>
      <path class="cls-1" d="m170,84.5c0,27.16-12.81,51.32-32.72,66.78-8.39,6.51-18.04,11.48-28.52,14.48-7.39,2.11-15.19,3.24-23.26,3.24h-52.5v85H0V95l47,47h38c12.17,0,23.44-3.81,32.69-10.31,14.7-10.3,24.31-27.38,24.31-46.69,0-31.48-25.52-57-57-57h-52v19L0,14V0h85.5c46.67,0,84.5,37.83,84.5,84.5Z"/>
      <polygon class="cls-2" points="100 114 57 114 0 57 0 14 100 114"/>
      <path class="cls-2" d="m229,0v254h-32l-88.24-88.24c10.48-3,20.13-7.97,28.52-14.48l58.72,58.72V0h33Z"/>
      <polygon class="cls-1" points="159 254 118 254 58 194 99 194 159 254"/>
    </g>
  </g>
</svg>